<!-- icon666.com - MILLIONS vector ICONS FREE --><svg viewBox="0 0 64 64" xmlns="http://www.w3.org/2000/svg"><g id="Icons"><g><g><g><g><path d="m30 4h-4c-4.418 0-8 3.582-8 8v6h20v-6c0-4.418-3.582-8-8-8z" fill="#0a5078"/></g><g><path d="m16 32h24v28h-24z" fill="#c80a50"/></g><g><path d="m24 32h8v28h-8z" fill="#00a0c8"/></g><g><path d="m24 26h8v6h-8z" fill="#d2aa82"/></g><g><path d="m36 16v-4c0-1.105-.895-2-2-2h-2-8-2c-1.105 0-2 .895-2 2v4c0 1.105-.895 2-2 2v3.667c0 4.602 3.731 8.333 8.333 8.333h3.333c4.603 0 8.334-3.731 8.334-8.333v-3.667c-1.105 0-2-.895-2-2z" fill="#f0c8a0"/></g><g><path d="m33 10h-10c-1.657 0-3-1.343-3-3 0-1.657 1.343-3 3-3h10c1.657 0 3 1.343 3 3 0 1.657-1.343 3-3 3z" fill="#0a5078"/></g><g><path d="m18 22v-6c-1.105 0-2 .895-2 2v2c0 1.105.895 2 2 2z" fill="#d2aa82"/></g><g><path d="m38 22v-6c1.105 0 2 .895 2 2v2c0 1.105-.895 2-2 2z" fill="#d2aa82"/></g><g><path d="m8 40v20h8v-28c-4.418 0-8 3.582-8 8z" fill="#c80a50"/></g><g><path d="m40 32v28h8v-20c0-4.418-3.582-8-8-8z" fill="#c80a50"/></g><g><path d="m32 32c0 2.209-1.791 4-4 4-2.209 0-4-1.791-4-4z" fill="#d2aa82"/></g></g><g><path d="m17 60v-17.5c0-.276-.224-.5-.5-.5s-.5.224-.5.5v17.5z" fill="#a00028"/></g><g><path d="m40 60v-17.5c0-.276-.224-.5-.5-.5s-.5.224-.5.5v17.5z" fill="#a00028"/></g><g><path d="m24 40h-2c-1.105 0-2-.895-2-2v-6h4z" fill="#f0f0f0"/></g><g><path d="m32 40h2c1.105 0 2-.895 2-2v-6h-4z" fill="#f0f0f0"/></g></g><g><path d="m40 32h-4.724c-2.044 2.434-3.276 5.573-3.276 9 0 7.732 6.268 14 14 14 .679 0 1.347-.049 2-.142v-14.858c0-4.418-3.582-8-8-8z" fill="#a00028"/></g><g><circle cx="46" cy="40" fill="#fab400" r="14"/></g><g><path d="m55 49h-18c-.552 0-1-.448-1-1v-13h20v13c0 .552-.448 1-1 1z" fill="#dc9600"/></g><g><path d="m55 48h-18c-.552 0-1-.448-1-1v-13h20v13c0 .552-.448 1-1 1z" fill="#f0f0f0"/></g><g><path d="m55 34h-4v6l1.553 3.106c.184.369.71.369.894 0l1.553-3.106z" fill="#d2d2d2"/></g><g><path d="m45 46h8c.552 0 1-.448 1-1v-2c0-.552-.448-1-1-1h-8c-.552 0-1 .448-1 1v2c0 .552.448 1 1 1z" fill="#c80a50"/></g><g><path d="m39 46h2c.552 0 1-.448 1-1v-2c0-.552-.448-1-1-1h-2c-.552 0-1 .448-1 1v2c0 .552.448 1 1 1z" fill="#00a0c8"/></g><g><path d="m55 32h-18c-.552 0-1 .448-1 1v1h20v-1c0-.552-.448-1-1-1z" fill="#0a5078"/></g><g><path d="m50 28h4v12h-4z" fill="#00a0c8"/></g><g><path d="m54 28h-4v-1c0-.552.448-1 1-1h2c.552 0 1 .448 1 1z" fill="#0a5078"/></g><g><path d="m50 40 1.553 3.106c.184.369.71.369.894 0l1.553-3.106z" fill="#fab400"/></g><g><path d="m40 40.5c-.128 0-.256-.049-.354-.146l-2-2c-.195-.195-.195-.512 0-.707l2-2c.195-.195.512-.195.707 0s.195.512 0 .707l-1.646 1.646 1.646 1.646c.195.195.195.512 0 .707-.097.098-.225.147-.353.147z" fill="#d2d2d2"/></g><g><path d="m46 40.5c-.128 0-.256-.049-.354-.146-.195-.195-.195-.512 0-.707l1.647-1.647-1.646-1.646c-.195-.195-.195-.512 0-.707s.512-.195.707 0l2 2c.195.195.195.512 0 .707l-2 2c-.098.097-.226.146-.354.146z" fill="#d2d2d2"/></g><g><path d="m42 40.5c-.075 0-.151-.017-.223-.053-.247-.124-.347-.424-.224-.671l2-4c.124-.247.424-.346.671-.224.247.124.347.424.224.671l-2 4c-.089.176-.265.277-.448.277z" fill="#d2d2d2"/></g><g><path d="m54 32h1v2h-1z" fill="#00325a"/></g></g></g></svg>